<?xml version="1.0" standalone="no"?>
<!DOCTYPE svg PUBLIC "-//W3C//DTD SVG 20010904//EN"
 "http://www.w3.org/TR/2001/REC-SVG-20010904/DTD/svg10.dtd">
<svg version="1.0" xmlns="http://www.w3.org/2000/svg"
 width="650.000000pt" height="1280.000000pt" viewBox="0 0 650.000000 1280.000000"
 preserveAspectRatio="xMidYMid meet">
<g transform="translate(0.000000,1280.000000) scale(0.100000,-0.100000)"
fill="#000000" stroke="none">
<path d="M4410 12778 c-5 -13 -25 -66 -43 -118 l-34 -95 -37 -3 c-30 -3 -41
-10 -63 -43 l-27 -41 -66 7 c-76 8 -81 4 -99 -67 -10 -44 -9 -50 17 -92 25
-41 31 -45 79 -51 29 -4 60 -13 69 -20 16 -11 16 -15 1 -54 -26 -63 -23 -71
23 -71 22 0 40 -5 40 -10 0 -23 -43 -186 -52 -197 -7 -8 -25 -10 -55 -6 -54 7
-73 -10 -73 -63 0 -36 8 -44 54 -54 29 -6 31 -9 29 -50 -4 -73 -10 -74 -163
-47 -98 18 -137 29 -146 42 -12 16 -17 17 -38 6 -35 -19 -47 -7 -40 40 5 31 2
44 -12 60 -108 119 -343 23 -344 -142 0 -57 46 -137 98 -170 37 -23 57 -29
102 -29 83 0 120 15 120 49 0 15 6 36 14 46 14 19 15 19 35 1 18 -16 25 -17
44 -7 19 10 46 9 146 -8 68 -11 128 -24 132 -28 5 -5 4 -26 -2 -47 l-11 -39
-54 7 c-54 6 -55 6 -68 -25 -8 -18 -10 -44 -7 -62 6 -27 12 -33 44 -38 48 -8
50 -10 42 -57 -12 -74 -17 -76 -130 -57 -69 12 -107 23 -122 37 -17 16 -25 18
-41 9 -33 -17 -35 -14 -29 38 5 42 3 52 -16 69 -59 56 -146 66 -225 26 -75
-37 -105 -81 -110 -158 -4 -77 24 -137 87 -181 36 -26 52 -30 104 -30 95 0
115 8 123 53 9 52 13 56 35 36 15 -14 24 -15 43 -6 19 8 49 7 123 -5 54 -8
101 -19 104 -25 3 -5 -3 -54 -13 -109 -18 -93 -18 -103 -3 -125 15 -23 2 -93
-215 -1217 -127 -655 -234 -1199 -239 -1207 -7 -12 -35 -14 -167 -12 -104 3
-163 8 -171 15 -6 7 -66 149 -133 317 -400 1002 -737 1744 -1073 2365 -191
352 -443 770 -489 811 -17 16 -36 19 -107 18 -70 0 -204 -24 -218 -38 -2 -2 1
-16 8 -32 6 -16 14 -49 18 -74 4 -25 309 -819 676 -1765 368 -946 670 -1731
672 -1745 4 -22 -7 -33 -93 -89 -242 -158 -444 -436 -543 -743 -48 -151 -63
-253 -68 -460 -5 -194 3 -300 38 -506 32 -190 28 -216 -58 -345 -40 -60 -47
-77 -46 -117 0 -26 6 -57 13 -69 15 -29 71 -52 108 -45 16 3 55 1 87 -6 77
-16 132 -67 184 -170 52 -105 65 -187 58 -365 -16 -388 -231 -916 -454 -1114
-125 -112 -231 -136 -387 -87 -104 32 -127 33 -164 1 -39 -32 -47 -69 -28
-123 43 -120 31 -178 -86 -427 -39 -82 -103 -220 -143 -305 -137 -293 -228
-574 -255 -794 -19 -150 -9 -376 24 -521 15 -66 31 -140 37 -165 25 -121 216
-435 347 -572 175 -183 435 -346 697 -438 104 -36 407 -117 604 -161 115 -26
525 -99 555 -99 6 0 2 -6 -9 -14 -17 -12 -17 -13 8 -20 136 -34 953 -34 1060
0 38 12 -1 24 -108 35 -61 6 -111 12 -113 13 -1 2 37 13 85 26 521 136 978
481 1188 897 26 51 51 93 55 93 8 0 52 -106 112 -270 11 -30 26 -62 33 -70 7
-8 59 -130 115 -270 56 -140 106 -259 111 -264 5 -6 65 13 151 47 79 31 151
57 160 57 12 0 28 -35 63 -140 32 -95 50 -138 58 -133 20 11 177 134 177 138
0 11 -670 1859 -889 2453 -56 150 -101 280 -101 289 0 8 19 38 42 66 55 65 59
115 13 154 -26 23 -35 25 -87 19 -54 -5 -59 -4 -68 17 -5 12 -111 292 -235
622 l-225 600 16 80 c51 251 149 442 257 496 34 18 52 20 111 15 39 -3 88 -8
108 -12 33 -5 41 -2 68 24 34 35 38 69 15 125 -31 75 -19 127 84 365 181 418
225 585 225 857 0 170 -14 256 -70 425 -176 529 -532 844 -1136 1005 -37 10
-69 23 -71 29 -2 6 56 553 130 1216 125 1130 135 1206 155 1223 18 15 23 38
36 150 8 73 17 177 21 232 l6 100 69 -2 c46 -2 75 -8 86 -18 10 -9 30 -15 46
-13 29 3 29 2 26 -44 -3 -44 -2 -48 35 -72 51 -34 112 -46 166 -34 167 37 213
237 80 347 -91 75 -221 62 -237 -23 -8 -40 -20 -45 -48 -19 -14 13 -21 14 -30
5 -15 -15 -62 -15 -129 -1 l-51 11 6 67 c4 36 9 106 11 155 2 49 8 93 13 98
13 13 143 -10 164 -29 12 -10 26 -13 48 -8 l32 7 -3 -43 c-3 -41 -1 -45 39
-73 35 -25 55 -31 110 -34 55 -2 74 1 106 20 123 72 142 213 42 313 -49 48
-115 71 -173 60 -56 -10 -70 -21 -77 -60 -8 -38 -25 -52 -54 -40 -9 4 -51 8
-92 9 -41 2 -87 7 -102 11 -27 7 -28 9 -27 79 1 96 9 120 39 124 31 4 49 27
43 52 -3 11 -2 31 1 45 6 24 9 26 50 20 28 -5 46 -3 50 4 4 6 18 11 31 11 21
0 25 7 35 58 6 31 13 65 15 76 2 11 -5 26 -17 35 -18 15 -19 21 -9 55 5 22 8
42 6 46 -2 4 -38 13 -80 19 -55 9 -78 18 -85 31 -6 10 -10 66 -10 124 0 115
-7 129 -61 119 -16 -3 -30 1 -38 11 -15 18 -47 21 -56 6 -9 -15 -23 -12 -42
10 -23 26 -41 25 -53 -2z m-2782 -1238 c103 -181 375 -722 511 -1020 290 -631
889 -2054 878 -2084 -3 -7 -53 -22 -113 -35 -59 -12 -148 -38 -198 -57 -50
-18 -96 -34 -102 -34 -6 0 -295 732 -642 1628 -736 1898 -652 1676 -644 1689
15 22 137 63 182 60 l44 -2 84 -145z m3059 -7396 c68 -186 121 -346 117 -354
-4 -11 -20 0 -59 43 -93 101 -158 252 -189 436 -20 116 -21 224 -4 219 7 -3
68 -157 135 -344z m587 -1646 c38 -102 356 -1022 356 -1029 0 -4 -14 -7 -30
-7 -17 1 -34 -2 -37 -6 -4 -4 3 -35 16 -69 41 -108 45 -138 28 -180 -11 -24
-28 -42 -50 -53 -71 -34 -130 8 -177 125 -29 73 -34 80 -62 83 -29 3 -32 9
-90 158 -37 98 -58 164 -55 180 3 14 16 69 30 124 41 156 50 264 45 502 -3
118 -2 214 3 214 4 0 14 -19 23 -42z m406 -1433 c34 -17 60 -62 60 -100 0
-119 -173 -159 -224 -51 -20 43 -20 59 0 102 28 60 102 81 164 49z"/>
</g>
</svg>
